<svg width="269" height="259" viewBox="0 0 269 259" fill="none" xmlns="http://www.w3.org/2000/svg">
<path opacity="0.75" d="M252.682 -44.6933C255.41 -44.1304 257.152 -41.4468 256.556 -38.7259L230.381 80.6947C230.026 82.3132 228.893 83.6509 227.355 84.2664L174.7 105.335C173.63 105.763 172.742 106.547 172.184 107.554L144.371 157.759C143.716 158.941 142.61 159.807 141.306 160.161L85.3091 175.357C84.3942 175.605 83.5687 176.108 82.9289 176.808L47.2544 215.814C45.9478 217.242 43.934 217.788 42.0848 217.215L-86.1233 177.484C-88.8 176.655 -90.2725 173.788 -89.3873 171.129L-1.57044 -92.6514C-0.770025 -95.0556 1.70235 -96.481 4.18402 -95.9689L252.682 -44.6933Z" fill="#F10707"/>
<path opacity="0.75" d="M236.682 -59.6933C239.41 -59.1304 241.152 -56.4468 240.556 -53.7259L214.381 65.6947C214.026 67.3132 212.893 68.6509 211.355 69.2664L158.7 90.3352C157.63 90.763 156.742 91.5469 156.184 92.5543L128.371 142.759C127.716 143.941 126.61 144.807 125.306 145.161L69.3091 160.357C68.3942 160.605 67.5687 161.108 66.9289 161.808L31.2544 200.814C29.9478 202.242 27.934 202.788 26.0848 202.215L-102.123 162.484C-104.8 161.655 -106.272 158.788 -105.387 156.129L-17.5704 -107.651C-16.77 -110.056 -14.2977 -111.481 -11.816 -110.969L236.682 -59.6933Z" fill="#081C57"/>
</svg>
